<svg width="103" height="35" fill="none" xmlns="http://www.w3.org/2000/svg"><path d="M23.255 32.425l6.164.128a43.043 43.043 0 01-6.164-2.682v2.554zm9.286-.846v.846l-3.122.128c5.875 1.995 11.25 2.266 15.241 1.149-3.203.032-7.37-.415-12.119-2.123zM98.35 13.19c2.559 0 4.651-2.059 4.651-4.613 0-2.554-2.076-3.91-4.651-3.91-2.56 0-4.651 1.372-4.651 3.91 0 2.538 2.076 4.613 4.65 4.613zm-4.667 19.235H103V14.786h-9.318v17.639zm-11.862 0h9.319V1.25l-9.32 4.358v26.817zm-4.989-19.06c-2.929-2.904-8.11-2.729-8.11-2.729s-5.2-.175-8.112 2.73c-2.93 2.905-2.704 5.411-2.704 8.396 0 2.985-.225 5.475 2.704 8.38 2.929 2.905 8.111 2.73 8.111 2.73s5.198.175 8.111-2.73c2.93-2.905 2.704-5.395 2.704-8.38-.016-3.001.21-5.507-2.704-8.396zm-6.405 11.478c0 .574-.29 1.995-1.722 1.995s-1.722-1.42-1.722-1.995v-6.45c0-1.388 1.175-1.739 1.722-1.739.547 0 1.722.335 1.722 1.74v6.449zM53.335 13.366c-2.93-2.905-8.112-2.73-8.112-2.73s-5.182-.175-8.11 2.73a9.582 9.582 0 00-.854.957C30.111 9.6 24.591 6.901 19.827 4.57V1.266l-3.62 1.692C7.45-.569 1.882.053.546 2.974c0 0-4.007 5.236 9.946 17.687v11.764h9.318V27.86a47.748 47.748 0 01-3.122-2.171 99.376 99.376 0 01-6.18-5.012v-4.949c2.108 2.347 4.909 5.012 8.594 8.03l.724.574v-4.757c0-1.101.274-2.905 1.738-2.905 1.465 0 1.706 1.101 1.706 2.394v7.774a43.04 43.04 0 009.286 4.725V16.574c0-2.985-2.156-5.97-6.534-5.97a7.13 7.13 0 00-6.196 3.496V5.432c6.744 3.337 13.503 7.423 16.078 9.306-1.642 2.331-1.497 4.486-1.497 6.976 0 2.985-.225 5.475 2.704 8.38 2.93 2.905 8.111 2.73 8.111 2.73s5.199.175 8.112-2.73c2.929-2.905 2.687-5.395 2.687-8.38 0-2.953.242-5.46-2.687-8.348zM10.493 5.608v10.104c-7.838-8.7-6.26-12.131-5.665-12.626 2.173-1.82 6.035-1.277 10.364.335l-4.699 2.187zm36.452 19.235c0 .574-.29 1.995-1.722 1.995s-1.722-1.42-1.722-1.995v-6.45c0-1.388 1.175-1.739 1.722-1.739.547 0 1.722.335 1.722 1.74v6.449z" fill="#737373"/></svg>