<svg width="84" height="59" fill="none" xmlns="http://www.w3.org/2000/svg"><path d="M.5.995h12.612V35.01c0 5.395 2.432 8.605 4.41 9.942-2.06 1.809-8.3 3.406-13.002-.456C1.764 42.213.5 38.416.5 34.879V.995zm78.769 28.278v-3.586h3.858V13.17h-4.23C77.258 5.624 70.596.017 62.636.017c-9.176 0-16.65 7.498-16.65 16.739v29.206c2.595.375 5.74-.049 8.382-2.281 2.772-2.282 4.02-6.063 4.02-9.616v-1.092h6.29V20.456h-6.29v-3.798c0-5.64 8.462-5.64 8.462 0v12.566c0 9.225 7.457 16.738 16.649 16.738V33.494a4.228 4.228 0 01-4.231-4.221zM31.56 13.137v18.418c0 2.51-3.858 2.51-3.858 0V13.137h-12.45v21.628c0 3.88 1.297 8.801 7.295 10.415 5.998 1.597 9.435-1.728 9.435-1.728-.34 2.184-2.35 3.798-5.658 4.124-2.513.26-5.706-.587-7.295-1.271v11.457c4.069 1.223 8.349 1.598 12.58.766 7.635-1.483 12.45-7.888 12.45-16.428V13.056H31.56v.082z" fill="#737373"/></svg>