<svg width="102" height="75" fill="none" xmlns="http://www.w3.org/2000/svg"><path d="M102 .146C89.123 8.828 87.752 15.13 86.636 17.057c-1.068 1.976-1.864 9.768-3.713 13.542-1.865 3.823-8.638 6.836-10.535 8.1-1.865 1.263-4.51 6.171-6.678 10.4-17.228-.713-26.68 6.284-41.31 15.161 4.686-1.571 6.901-2.705 6.901-2.705 15.013-5.831 22.201-11.064 44.8-7.97.176 0 .303.097.447.13a1.28 1.28 0 01.494 1.75l-8.59 15.518a1.905 1.905 0 01-2.088.988c-20.209-3.856-36.162 2.802-50.825 3.013C3.841 75.162 0 69.557 0 69.298c0-.178.096-.275.27-.275 0 0 6.105 0 16.433-2.479 11.73-22.726 22.185-30.68 33.564-30.68 0 0 11.427 0 14.44 10.027 3.633-6.431 4.51-7.97 4.51-7.97.844-1.523 5.578-12.505 13.77-22.905C91.194 4.65 97.394 2.073 102 .146z" fill="#737373"/></svg>