<svg width="103" height="43" fill="none" xmlns="http://www.w3.org/2000/svg"><path d="M26.555 3.793l-6.968 1.464-.033 22.654c0 4.184 3.187 6.889 7.42 6.889 2.35 0 4.071-.43 5.02-.939v-5.377c-.916.366-5.423 1.67-5.423-2.498V15.932h5.424V9.918H26.57l-.016-6.125zm14.34 8.21l-.435-2.085h-6.18v24.373h7.13V17.889c1.69-2.196 4.538-1.766 5.456-1.48V9.92c-.966-.335-4.297-.955-5.971 2.083zM55.749.5l-7.178 1.511v5.76l7.178-1.512V.5zM7.227 17.093c0-1.098.933-1.527 2.43-1.543 2.172 0 4.94.652 7.113 1.814v-6.65c-2.366-.923-4.731-1.289-7.097-1.289-5.794 0-9.656 2.99-9.656 7.986 0 7.828 10.863 6.555 10.863 9.928 0 1.304-1.143 1.734-2.736 1.734-2.366 0-5.424-.97-7.822-2.26v6.364a20.003 20.003 0 007.806 1.607c5.938 0 10.026-2.514 10.026-7.604 0-8.416-10.927-6.905-10.927-10.087zM103 22.391c0-7.239-3.541-12.95-10.333-12.95-6.791 0-10.927 5.711-10.927 12.902 0 8.512 4.876 12.441 11.829 12.441 3.412 0 5.97-.764 7.918-1.83v-5.313c-1.948.97-4.185 1.559-7.017 1.559-2.784 0-5.23-.97-5.553-4.28h13.986c.032-.366.097-1.845.097-2.53zm-14.147-2.673c0-3.182 1.98-4.518 3.766-4.518 1.754 0 3.621 1.336 3.621 4.518h-7.387zM70.684 9.441c-2.8 0-4.602 1.304-5.6 2.211l-.37-1.75H58.42v32.582l7.146-1.495.016-7.987c1.03.748 2.558 1.782 5.053 1.782 5.118 0 9.785-3.69 9.785-12.663.016-8.21-4.716-12.68-9.737-12.68zM68.978 28.93c-1.673 0-2.671-.605-3.363-1.337l-.048-10.5c.74-.811 1.77-1.4 3.411-1.4 2.608 0 4.41 2.896 4.41 6.586.016 3.803-1.754 6.65-4.41 6.65zm-20.39 5.36h7.177V9.919h-7.178v24.373z" fill="#737373"/></svg>