<svg width="105" height="63" fill="none" xmlns="http://www.w3.org/2000/svg"><path d="M29.887 22.989c-.117 3.638 1.717 5.249 1.762 6.272a1.302 1.302 0 01-.664 1.007l-2.073 1.44a1.736 1.736 0 01-.912.308c-.07-.004-1.327.294-3.318-4.114a12.717 12.717 0 01-4.518 3.531 12.826 12.826 0 01-5.625 1.2c-2.637.142-9.784-1.485-9.416-9.03-.258-6.148 5.517-9.967 11.49-9.645 1.15.004 3.5.06 7.612 1.008v-2.51c.436-4.25-2.381-7.547-7.259-7.052-.389.001-3.143-.08-7.426 1.624-1.192.543-1.344.453-1.741.453-1.2 0-.706-3.45-.476-3.887.844-1.028 5.809-2.948 10.681-2.92a12.522 12.522 0 019.022 2.775 11.266 11.266 0 012.3 3.915 11.2 11.2 0 01.562 4.495l-.001 11.13zm-14 5.202c5.254-.075 7.478-3.207 7.985-4.894.398-1.614.332-2.636.332-4.4-1.567-.374-3.821-.78-6.409-.783-2.454-.183-6.936.904-6.761 5.181-.201 2.697 1.801 5.044 4.853 4.896zm27.688 3.703c-1.273.115-1.866-.781-2.054-1.666L33.454 3.782a6.087 6.087 0 01-.311-1.379.736.736 0 01.136-.55.748.748 0 01.49-.293c.038-.006-.346 0 3.604 0 1.422-.141 1.885.969 2.033 1.666l5.786 22.62 5.372-22.62c.086-.517.476-1.778 2.073-1.645h2.78c.352-.029 1.8-.08 2.054 1.666l5.414 22.91 5.973-22.91c.077-.35.44-1.827 2.054-1.666h3.194c.138-.02.996-.13.85 1.378-.069.297.553-1.712-8.544 27.29-.187.885-.781 1.781-2.055 1.665H61.33c-1.773.185-2.027-1.551-2.054-1.726L53.904 8.162l-5.31 22.003c-.026.175-.28 1.912-2.054 1.727h-2.965v.002zm44.302.904c-.952.002-5.495-.048-9.292-1.974a2.07 2.07 0 01-.925-.766 2.044 2.044 0 01-.34-1.147v-1.727c0-1.357 1.005-1.108 1.43-.946 1.627.652 2.67 1.147 4.668 1.542 5.937 1.21 8.548-.37 9.188-.72 2.13-1.254 2.299-4.124.85-5.613-1.697-1.412-2.507-1.465-8.606-3.373-.752-.208-7.08-2.186-7.094-8.41C77.657 5.128 81.814.64 89.018.677c2.052-.002 7.521.663 9.002 2.509.218.335.327.73.31 1.13V5.94c0 .713-.262 1.07-.788 1.07-1.25-.138-3.465-1.794-7.964-1.727-1.116-.057-6.462.147-6.222 4.011-.07 3.045 4.31 4.188 4.811 4.32 5.906 1.761 7.881 2.054 10.225 4.75 2.777 3.574 1.28 7.758.705 8.905-3.09 6.022-11.084 5.532-11.22 5.529zM94.39 49.64c-11.345 8.308-27.813 12.73-41.874 12.73-18.973.124-37.306-6.793-51.396-19.392-1.058-.946-.125-2.242 1.161-1.521a103.933 103.933 0 0051.333 13.511A102.842 102.842 0 0092.75 47.01c1.908-.803 3.527 1.253 1.64 2.63zm4.729-5.347c-1.451-1.85-9.603-.865-13.253-.432-1.1.123-1.286-.823-.29-1.522 6.491-4.524 17.152-3.228 18.377-1.707 1.223 1.521-.332 12.112-6.409 17.172-.933.782-1.825.37-1.41-.658 1.367-3.414 4.436-11.002 2.985-12.853z" fill="#737373"/></svg>