<svg width="77" height="73" fill="none" xmlns="http://www.w3.org/2000/svg"><path d="M67.926 28.161c-2.395 0-4.503.995-6.051 2.55-5.7-3.96-13.38-6.51-21.89-6.783l4.422-20.012L58.49 7.09c0 3.463 2.81 6.286 6.259 6.286 3.512 0 6.338-2.903 6.338-6.367 0-3.463-2.81-6.366-6.338-6.366-2.46 0-4.583 1.492-5.636 3.528L43.56.708c-.782-.208-1.548.353-1.756 1.139L36.95 23.912c-8.446.353-16.046 2.902-21.762 6.863a8.468 8.468 0 00-6.131-2.614c-8.877 0-11.783 11.963-3.656 16.052-.288 1.267-.416 2.614-.416 3.96C4.986 61.613 20.06 72.5 38.564 72.5c18.585 0 33.657-10.888 33.657-24.326 0-1.347-.144-2.758-.495-4.025 7.967-4.105 5.03-15.988-3.8-15.988zm-49.64 16.902c0-3.528 2.81-6.366 6.34-6.366 3.448 0 6.258 2.822 6.258 6.366 0 3.464-2.81 6.286-6.259 6.286-3.512.016-6.338-2.822-6.338-6.286zm34.216 14.993c-5.811 5.837-22.209 5.837-28.02 0-.64-.56-.64-1.555 0-2.197.558-.56 1.548-.56 2.107 0 4.439 4.57 19.16 4.65 23.79 0 .559-.56 1.549-.56 2.108 0 .654.642.654 1.636.015 2.197zm-.127-8.691c-3.449 0-6.26-2.822-6.26-6.286 0-3.528 2.811-6.366 6.26-6.366a6.327 6.327 0 016.338 6.366c-.016 3.448-2.826 6.286-6.338 6.286z" fill="#737373"/></svg>