<svg width="24" height="18" fill="none" xmlns="http://www.w3.org/2000/svg"><path d="M23.47 2.932a3.192 3.192 0 00-.775-1.41 2.966 2.966 0 00-1.34-.814C19.488.177 11.988.177 11.988.177s-7.5 0-9.367.53a2.966 2.966 0 00-1.34.815c-.372.39-.639.877-.775 1.41A34.16 34.16 0 000 9a34.161 34.161 0 00.505 6.068c.136.533.403 1.02.775 1.41.37.39.833.67 1.34.814 1.866.531 9.367.531 9.367.531s7.5 0 9.367-.531a2.966 2.966 0 001.34-.815c.371-.39.639-.876.775-1.409.348-2.002.518-4.033.505-6.068a34.163 34.163 0 00-.505-6.068zm-13.88 9.85V5.218l6.225 3.78L9.59 12.78z" fill="#E42F08"/></svg>