<svg width="47" height="27" fill="none" xmlns="http://www.w3.org/2000/svg"><path d="M42.3 12.273a4.522 4.522 0 00-1.652.326l-5.635-4.818c.138-.525.237-1.07.237-1.645C35.25 2.734 32.632 0 29.375 0S23.5 2.734 23.5 6.136c0 .972.235 1.878.616 2.693l-6.837 8.439a4.643 4.643 0 00-.829-.086c-.42 0-.818.074-1.203.181l-6.023-6.29c.105-.4.176-.816.176-1.255 0-2.72-2.096-4.909-4.7-4.909S0 7.1 0 9.82c0 2.719 2.096 4.908 4.7 4.908.42 0 .818-.073 1.203-.181l6.023 6.29c-.113.408-.172.83-.176 1.255 0 2.72 2.096 4.909 4.7 4.909s4.7-2.19 4.7-4.91a5.08 5.08 0 00-.29-1.646l6.846-8.449c.534.162 1.086.278 1.669.278a5.63 5.63 0 002.663-.69l5.637 4.818a5.24 5.24 0 00-.075.78c0 2.72 2.096 4.91 4.7 4.91S47 19.9 47 17.18c0-2.719-2.096-4.908-4.7-4.908z" fill="#00A0C1"/></svg>