<svg width="36" height="48" fill="none" xmlns="http://www.w3.org/2000/svg"><path d="M9.064 33.995c-.811-.815-.389-.585-2.345-1.111-.887-.24-1.668-.699-2.373-1.249L.11 42.064c-.41 1.01.356 2.106 1.44 2.065l4.918-.188L9.85 47.53a1.49 1.49 0 002.467-.465L17.176 35.1c-1.011.566-2.134.898-3.295.898-1.82 0-3.53-.711-4.817-2.003zm26.663 8.069l-4.234-10.429c-.706.551-1.486 1.01-2.374 1.249-1.966.529-1.535.298-2.344 1.11a6.756 6.756 0 01-4.818 2.004c-1.161 0-2.284-.332-3.296-.898l4.858 11.965a1.49 1.49 0 002.467.465l3.383-3.59 4.918.19a1.5 1.5 0 001.44-2.066zm-11.181-10.19c1.426-1.458 1.59-1.333 3.62-1.889a3.802 3.802 0 002.657-2.717c.699-2.662.517-2.34 2.422-4.289.95-.97 1.32-2.385.973-3.71-.697-2.661-.698-2.29 0-4.953a3.901 3.901 0 00-.973-3.71c-1.904-1.949-1.723-1.628-2.421-4.29A3.802 3.802 0 0028.165 3.6c-2.602-.713-2.288-.527-4.195-2.476A3.703 3.703 0 0020.34.13c-2.601.712-2.238.713-4.844 0a3.7 3.7 0 00-3.63.994C9.963 3.071 10.277 2.886 7.673 3.6a3.802 3.802 0 00-2.657 2.717c-.697 2.662-.517 2.341-2.422 4.29a3.899 3.899 0 00-.973 3.71c.698 2.659.698 2.287 0 4.952a3.903 3.903 0 00.973 3.711c1.905 1.948 1.724 1.627 2.422 4.29a3.802 3.802 0 002.657 2.716c2.089.572 2.245.482 3.62 1.888a3.697 3.697 0 004.642.546 3.692 3.692 0 013.97 0 3.696 3.696 0 004.64-.546zM9.114 16.493c0-4.971 3.942-9.001 8.805-9.001 4.863 0 8.805 4.03 8.805 9.002 0 4.971-3.942 9.001-8.805 9.001-4.863 0-8.805-4.03-8.805-9.001z" fill="#00A0C1"/></svg>