<svg width="57" height="71" fill="none" xmlns="http://www.w3.org/2000/svg"><path d="M28.5 42C36.497 42 43 35.721 43 28s-6.503-14-14.5-14S14 20.279 14 28s6.503 14 14.5 14zm0-21c3.998 0 7.25 3.14 7.25 7s-3.252 7-7.25 7-7.25-3.14-7.25-7 3.252-7 7.25-7z" fill="#fff"/><path d="M26.434 70.34a3.564 3.564 0 004.132 0C31.65 69.577 57.103 51.262 57 28.4 57 12.741 44.214 0 28.5 0S0 12.741 0 28.383c-.103 22.88 25.35 41.194 26.434 41.957zM28.5 7.1c11.788 0 21.375 9.553 21.375 21.318C49.95 44.173 34.243 58.32 28.5 62.96 22.76 58.316 7.05 44.166 7.125 28.4c0-11.747 9.587-21.3 21.375-21.3z" fill="#fff"/></svg>