<svg width="70" height="71" fill="none" xmlns="http://www.w3.org/2000/svg"><path d="M68.348 1.162a2.853 2.853 0 00-1.417-.804 2.78 2.78 0 00-1.611.114L1.862 24.471c-.548.216-1.019.6-1.351 1.1A3.084 3.084 0 000 27.277c0 .608.178 1.203.51 1.704.333.5.804.885 1.352 1.1l27.69 11.52L40.63 70.398a2.983 2.983 0 001.026 1.35 2.81 2.81 0 001.57.54 2.811 2.811 0 001.622-.561 2.99 2.99 0 001.032-1.419L68.954 4.312c.197-.53.244-1.109.137-1.667a3.043 3.043 0 00-.743-1.483zM43.225 60.889L35.177 39.89l13.817-14.37-4.067-4.229-13.932 14.49-20.076-8.49L61.483 8.3 43.225 60.89z" fill="#00A0C1"/></svg>