<svg width="48" height="41" fill="none" xmlns="http://www.w3.org/2000/svg"><path d="M42.589 8.526h-5.07v-5.07a3.38 3.38 0 00-3.38-3.38H13.861a3.38 3.38 0 00-3.38 3.38v5.07h-5.07a5.07 5.07 0 00-5.07 5.07v23.657a3.38 3.38 0 003.38 3.38H44.28a3.38 3.38 0 003.38-3.38V13.595a5.07 5.07 0 00-5.07-5.07zM13.86 3.456h20.278v5.07H13.861v-5.07zm30.418 33.797H3.721V22.044H17.24v8.45h13.518v-8.45h13.52v15.21zM20.62 22.044h6.76v5.07h-6.76v-5.07zm-16.898-3.38v-5.069a1.69 1.69 0 011.69-1.69h37.177a1.69 1.69 0 011.69 1.69v5.07H3.721z" fill="#00A0C1"/></svg>