<svg width="48" height="48" fill="none" xmlns="http://www.w3.org/2000/svg"><g clip-path="url(#clip0)" fill="#00A0C1"><path opacity=".15" d="M43.65 13.75H4.35c-.018 0-.03.012-.03.03v5.405c0 3.544 2.94 6.419 6.558 6.419a6.593 6.593 0 005.706-3.242.993.993 0 011.716 0 6.576 6.576 0 005.7 3.242c2.448 0 4.584-1.31 5.706-3.254a.97.97 0 01.834-.48h.036c.348 0 .66.183.834.48a6.586 6.586 0 005.712 3.254c3.618 0 6.558-2.875 6.558-6.42V13.78c0-.018-.012-.03-.03-.03z"/><path d="M46.2 9.489V1.897C46.2.847 45.342 0 44.28 0H3.72C2.658 0 1.8.848 1.8 1.897v7.592c-1.002.06-1.8.883-1.8 1.89v7.806a10.38 10.38 0 00.864 4.173c.258.604.576 1.173.936 1.712v20.448a1.91 1.91 0 001.92 1.897h40.56c1.062 0 1.92-.848 1.92-1.897V25.07c.366-.54.679-1.114.936-1.712.57-1.322.864-2.727.864-4.173V11.38a1.905 1.905 0 00-1.8-1.891zM6.12 4.267h35.76v5.216H6.12V4.267zm21.72 38.886h-7.68v-6.17h7.68v6.17zm14.064 0H31.68v-8.066a1.906 1.906 0 00-1.92-1.897H18.24c-1.062 0-1.92.848-1.92 1.897v8.066H6.12V28.8c.174.082.354.165.54.236a10.93 10.93 0 004.224.836 11.004 11.004 0 006.546-2.146.039.039 0 01.036 0c.716.53 1.496.97 2.322 1.31a10.93 10.93 0 004.224.836 11.004 11.004 0 006.546-2.146.039.039 0 01.036 0c.716.53 1.496.97 2.322 1.31a10.93 10.93 0 004.224.836c1.464 0 2.88-.278 4.224-.835.18-.078.36-.155.54-.238v14.355zm1.776-23.968c0 3.544-2.94 6.419-6.558 6.419a6.586 6.586 0 01-5.712-3.254.963.963 0 00-.834-.48h-.036a.97.97 0 00-.834.48 6.515 6.515 0 01-2.409 2.387 6.617 6.617 0 01-3.297.867 6.576 6.576 0 01-5.7-3.242.993.993 0 00-1.716 0 6.539 6.539 0 01-2.413 2.377 6.641 6.641 0 01-3.293.865c-3.618 0-6.558-2.875-6.558-6.419V13.78c0-.018.012-.03.03-.03h39.3c.018 0 .03.012.03.03v5.405z"/></g><defs><clipPath id="clip0"><path fill="#fff" d="M0 0h48v47.415H0z"/></clipPath></defs></svg>