<svg width="48" height="38" fill="none" xmlns="http://www.w3.org/2000/svg"><g clip-path="url(#clip0)" fill="#fff"><path d="M29.142 8.624h11.997v3.445H29.142V8.624zm0 8.613h11.997v3.446H29.142v-3.446zm0 8.613h11.997v3.446H29.142V25.85z"/><path d="M44.567.011H3.432a3.423 3.423 0 00-2.423 1.01A3.458 3.458 0 00.004 3.457v31.007c0 .914.362 1.79 1.005 2.436a3.423 3.423 0 002.423 1.01h41.135a3.424 3.424 0 002.423-1.01 3.459 3.459 0 001.005-2.436V3.457c0-.914-.362-1.79-1.005-2.436a3.422 3.422 0 00-2.423-1.01zM3.432 3.457h18.854v31.007H3.432V3.457zm22.282 31.007V3.457h18.853l.004 31.007H25.714z"/></g><defs><clipPath id="clip0"><path fill="#fff" d="M0 0h48v37.92H0z"/></clipPath></defs></svg>